<svg width="115" height="28" viewBox="0 0 115 28" fill="none" xmlns="http://www.w3.org/2000/svg">
  <path d="M112.269 22.8135V10.0467H114.599V22.8135H112.269ZM113.446 8.01903C113.029 8.01903 112.661 7.86883 112.344 7.56843C112.043 7.25135 111.893 6.8842 111.893 6.46699C111.893 6.04977 112.043 5.69097 112.344 5.39057C112.661 5.07349 113.029 4.91495 113.446 4.91495C113.864 4.91495 114.223 5.07349 114.524 5.39057C114.841 5.69097 115 6.04977 115 6.46699C115 6.8842 114.841 7.25135 114.524 7.56843C114.223 7.86883 113.864 8.01903 113.446 8.01903Z" fill="white"/>
  <path d="M96.4857 22.8135V4.53946H98.791V11.6989C99.3088 11.0313 99.9353 10.539 100.67 10.2219C101.422 9.90484 102.199 9.7463 103.001 9.7463C104.137 9.7463 105.122 9.98829 105.957 10.4723C106.793 10.9395 107.444 11.5987 107.912 12.4499C108.38 13.301 108.613 14.2939 108.613 15.4288V22.8135H106.308V15.4538C106.308 14.6861 106.133 14.0269 105.782 13.4762C105.431 12.9088 104.963 12.4749 104.379 12.1745C103.811 11.8741 103.201 11.7239 102.55 11.7239C101.898 11.7239 101.288 11.8741 100.72 12.1745C100.152 12.4582 99.6847 12.8754 99.3172 13.4261C98.9664 13.9769 98.791 14.6361 98.791 15.4037V22.8135H96.4857Z" fill="white"/>
  <path d="M92.3486 22.8135C91.0289 22.8135 89.8512 22.5298 88.8155 21.9624C87.7798 21.395 86.9613 20.6356 86.3599 19.6844C85.7585 18.7165 85.4579 17.6317 85.4579 16.4301C85.4579 15.2285 85.7585 14.1521 86.3599 13.2009C86.9613 12.2329 87.7798 11.4653 88.8155 10.8978C89.8512 10.3304 91.0289 10.0467 92.3486 10.0467H93.852V12.0243H92.2734C91.4214 12.0243 90.653 12.2246 89.9681 12.6251C89.2999 13.009 88.7654 13.5346 88.3645 14.2022C87.9803 14.8697 87.7882 15.6124 87.7882 16.4301C87.7882 17.2479 87.9803 17.9905 88.3645 18.658C88.7654 19.3256 89.2999 19.8596 89.9681 20.2601C90.653 20.644 91.4214 20.8359 92.2734 20.8359H93.852V22.8135H92.3486Z" fill="white"/>
  <path d="M76.488 23.1139C75.1851 23.1139 74.0324 22.8219 73.0302 22.2378C72.0279 21.637 71.2344 20.8359 70.6497 19.8346C70.0651 18.8166 69.7727 17.6818 69.7727 16.4301C69.7727 15.1785 70.0651 14.052 70.6497 13.0507C71.2344 12.0327 72.0279 11.2316 73.0302 10.6475C74.0324 10.0467 75.1851 9.74634 76.488 9.74634C77.791 9.74634 78.9436 10.0467 79.9459 10.6475C80.9649 11.2316 81.7584 12.0243 82.3263 13.0256C82.911 14.027 83.2033 15.1618 83.2033 16.4301C83.2033 17.6818 82.911 18.8166 82.3263 19.8346C81.7584 20.8359 80.9649 21.637 79.9459 22.2378C78.9436 22.8219 77.791 23.1139 76.488 23.1139ZM76.488 21.1363C77.3734 21.1363 78.1418 20.9277 78.7933 20.5105C79.4448 20.0933 79.9543 19.5342 80.3218 18.8333C80.6893 18.1157 80.873 17.3146 80.873 16.4301C80.873 15.5456 80.6893 14.7529 80.3218 14.052C79.9543 13.3344 79.4448 12.767 78.7933 12.3498C78.1418 11.9325 77.3734 11.7239 76.488 11.7239C75.6194 11.7239 74.851 11.9325 74.1828 12.3498C73.5313 12.767 73.0218 13.3344 72.6543 14.052C72.2868 14.7529 72.103 15.5456 72.103 16.4301C72.103 17.3146 72.2868 18.1157 72.6543 18.8333C73.0218 19.5342 73.5313 20.0933 74.1828 20.5105C74.851 20.9277 75.6194 21.1363 76.488 21.1363Z" fill="white"/>
  <path d="M46.1513 22.8135V15.1284C46.1513 14.1438 46.3768 13.2426 46.8278 12.4249C47.2789 11.6071 47.9304 10.9563 48.7823 10.4723C49.6342 9.98832 50.6616 9.74634 51.8643 9.74634C52.449 9.74634 53.0337 9.82978 53.6183 9.99667C54.203 10.1469 54.7459 10.4139 55.247 10.7977C55.7482 11.1649 56.1491 11.6655 56.4498 12.2997H56.4748C56.8089 11.6655 57.2265 11.1649 57.7277 10.7977C58.2288 10.4139 58.7717 10.1469 59.3564 9.99667C59.9411 9.82978 60.5341 9.74634 61.1355 9.74634C62.3215 9.74634 63.3405 9.98832 64.1924 10.4723C65.0444 10.9563 65.6958 11.6071 66.1469 12.4249C66.5979 13.2426 66.8234 14.1438 66.8234 15.1284V22.8135H64.5182V15.1284C64.5182 14.4942 64.3678 13.9185 64.0671 13.4011C63.7664 12.8838 63.3572 12.4749 62.8393 12.1745C62.3382 11.8741 61.7619 11.7239 61.1104 11.7239C60.4756 11.7239 59.891 11.8825 59.3564 12.1996C58.8218 12.5 58.3959 12.9088 58.0785 13.4262C57.7778 13.9268 57.6275 14.4942 57.6275 15.1284V22.8135H55.3222V15.1284C55.3222 14.4942 55.1635 13.9268 54.8461 13.4262C54.5454 12.9088 54.1278 12.5 53.5933 12.1996C53.0754 11.8825 52.4908 11.7239 51.8393 11.7239C51.2045 11.7239 50.6282 11.8741 50.1103 12.1745C49.6092 12.4749 49.2083 12.8838 48.9076 13.4011C48.6069 13.9185 48.4566 14.4942 48.4566 15.1284V22.8135H46.1513Z" fill="white"/>
  <path fill-rule="evenodd" clip-rule="evenodd" d="M31.3068 21.8496C31.9733 20.728 32.4018 19.203 32.4018 17.0826C32.4018 8.62202 25.5432 1.76337 17.0826 1.76337C8.62202 1.76337 1.76337 8.62202 1.76337 17.0826C1.76337 19.203 2.19191 20.728 2.85838 21.8496C3.51948 22.9622 4.48813 23.8021 5.7818 24.4386C8.46796 25.7601 12.3608 26.1198 17.0826 26.1198C21.8044 26.1198 25.6972 25.7601 28.3834 24.4386C29.6771 23.8021 30.6457 22.9622 31.3068 21.8496ZM17.0826 27.8832C26.5171 27.8832 34.1652 26.5171 34.1652 17.0826C34.1652 7.64814 26.5171 0 17.0826 0C7.64814 0 0 7.64814 0 17.0826C0 26.5171 7.64814 27.8832 17.0826 27.8832Z" fill="white"/>
  <path fill-rule="evenodd" clip-rule="evenodd" d="M31.5641 22.6063C32.0691 21.6176 32.4018 20.2533 32.4018 18.3454C32.4018 10.6316 27.0784 4.84924 21.0502 4.84924C15.022 4.84924 9.69852 10.6316 9.69852 18.3454C9.69852 20.2533 10.0313 21.6176 10.5362 22.6063C11.0313 23.5758 11.7378 24.2758 12.6525 24.7994C14.5823 25.9041 17.4326 26.23 21.0502 26.23C24.6677 26.23 27.518 25.9041 29.4479 24.7994C30.3626 24.2758 31.069 23.5758 31.5641 22.6063ZM21.0502 27.9934C28.2934 27.9934 34.1652 26.773 34.1652 18.3454C34.1652 9.91781 28.2934 3.08588 21.0502 3.08588C13.8069 3.08588 7.93515 9.91781 7.93515 18.3454C7.93515 26.773 13.8069 27.9934 21.0502 27.9934Z" fill="white"/>
  <path d="M28.2138 17.0543C28.2138 21.6037 25.0066 22.2625 21.0502 22.2625C17.0938 22.2625 13.8865 21.6037 13.8865 17.0543C13.8865 12.5049 17.0938 8.81683 21.0502 8.81683C25.0066 8.81683 28.2138 12.5049 28.2138 17.0543Z" fill="#BCFFD0"/>
</svg>
